<?xml version="1.0" encoding="utf-8"?>
<!-- Generator: Adobe Illustrator 27.0.0, SVG Export Plug-In . SVG Version: 6.00 Build 0)  -->
<svg version="1.1" id="Capa_1" xmlns="http://www.w3.org/2000/svg" xmlns:xlink="http://www.w3.org/1999/xlink" x="0px" y="0px"
	 viewBox="0 0 285.23 80" style="enable-background:new 0 0 285.23 80;" xml:space="preserve">
<style type="text/css">
	.st0{fill:#FFFFFF;}
</style>
<g>
	<path class="st0" d="M119.95,61.58h-9.49v-6.1h-0.17c-1.19,2.2-2.95,3.97-5.3,5.3c-2.35,1.33-4.73,1.99-7.16,1.99
		c-5.76,0-9.93-1.43-12.5-4.28s-3.86-7.16-3.86-12.92v-27.8h9.66v26.87c0,3.84,0.73,6.55,2.2,8.14c1.47,1.58,3.53,2.37,6.19,2.37
		c2.03,0,3.73-0.31,5.08-0.93c1.36-0.62,2.46-1.45,3.31-2.5c0.85-1.04,1.45-2.3,1.82-3.77s0.55-3.05,0.55-4.75V17.76h9.66
		L119.95,61.58L119.95,61.58z"/>
	<path class="st0" d="M130.38,1.07h9.66v34.41l17.46-17.71h11.87l-16.78,16.1l18.39,27.71H159.2l-13.4-21.27l-5.76,5.59v15.68h-9.66
		V1.07z"/>
	<path class="st0" d="M175.89,1.07h9.66v9.15h-9.66V1.07z M175.89,17.76h9.66v43.82h-9.66V17.76z"/>
	<path class="st0" d="M196.06,17.76h9.15v6.44l0.17,0.17c1.47-2.43,3.39-4.34,5.76-5.72s5-2.08,7.88-2.08
		c4.8,0,8.59,1.24,11.36,3.73s4.15,6.22,4.15,11.19v30.09h-9.66V34.04c-0.11-3.45-0.85-5.95-2.2-7.5c-1.36-1.55-3.47-2.33-6.36-2.33
		c-1.64,0-3.11,0.3-4.41,0.89s-2.4,1.41-3.3,2.46c-0.9,1.05-1.61,2.27-2.12,3.69c-0.51,1.41-0.76,2.91-0.76,4.49v25.85h-9.66
		L196.06,17.76L196.06,17.76z"/>
	<path class="st0" d="M285.22,59.29c0,6.61-1.85,11.54-5.55,14.79c-3.7,3.25-9.03,4.87-15.98,4.87c-2.2,0-4.42-0.23-6.65-0.68
		c-2.23-0.45-4.27-1.22-6.1-2.29c-1.84-1.07-3.38-2.49-4.62-4.24c-1.24-1.75-1.98-3.9-2.2-6.44h9.66c0.28,1.36,0.76,2.46,1.44,3.3
		s1.48,1.51,2.42,1.99c0.93,0.48,1.96,0.79,3.09,0.93s2.32,0.21,3.56,0.21c3.9,0,6.75-0.96,8.56-2.88s2.71-4.69,2.71-8.31v-6.7
		h-0.17c-1.36,2.43-3.21,4.32-5.55,5.68c-2.35,1.36-4.87,2.03-7.59,2.03c-3.5,0-6.48-0.61-8.94-1.82s-4.49-2.88-6.1-5
		s-2.78-4.56-3.52-7.33s-1.1-5.73-1.1-8.9c0-2.94,0.45-5.73,1.36-8.39c0.9-2.66,2.2-4.99,3.9-6.99s3.77-3.6,6.23-4.79
		c2.46-1.19,5.24-1.78,8.35-1.78c2.77,0,5.31,0.58,7.63,1.74s4.1,2.98,5.34,5.47h0.17v-6.02h9.66L285.22,59.29L285.22,59.29z
		 M263.78,53.95c2.15,0,3.97-0.44,5.47-1.31c1.5-0.88,2.71-2.03,3.64-3.47c0.93-1.44,1.61-3.08,2.03-4.92
		c0.42-1.84,0.64-3.69,0.64-5.55s-0.23-3.67-0.68-5.42c-0.45-1.75-1.14-3.31-2.08-4.66c-0.93-1.36-2.15-2.43-3.64-3.22
		c-1.5-0.79-3.29-1.19-5.38-1.19c-2.15,0-3.96,0.45-5.42,1.36c-1.47,0.9-2.66,2.08-3.56,3.52s-1.55,3.08-1.95,4.92
		c-0.4,1.84-0.59,3.66-0.59,5.47s0.23,3.57,0.68,5.3c0.45,1.72,1.14,3.26,2.08,4.62c0.93,1.36,2.12,2.46,3.56,3.3
		S261.74,53.95,263.78,53.95z"/>
</g>
<path class="st0" d="M70.24,17.76v9.53H48.6v24.77h21.64v9.53H15.83v-9.53h24.54V27.29H15.83v-9.53L70.24,17.76z"/>
<rect y="34.93" class="st0" width="31.18" height="9.48"/>
</svg>
